<?xml version="1.0" encoding="UTF-8" standalone="no"?>
<!-- Created with Inkscape (http://www.inkscape.org/) -->

<svg
   xmlns:dc="http://purl.org/dc/elements/1.1/"
   xmlns:cc="http://creativecommons.org/ns#"
   xmlns:rdf="http://www.w3.org/1999/02/22-rdf-syntax-ns#"
   xmlns:svg="http://www.w3.org/2000/svg"
   xmlns="http://www.w3.org/2000/svg"
   xmlns:sodipodi="http://sodipodi.sourceforge.net/DTD/sodipodi-0.dtd"
   xmlns:inkscape="http://www.inkscape.org/namespaces/inkscape"
   height="32"
   width="32"
   viewBox="0 0 8.4666665 8.4666669"
   version="1.1"
   id="svg4"
   inkscape:version="0.91 r13725"
   sodipodi:docname="info.svg">
  <defs
     id="defs8" />
  <sodipodi:namedview
     pagecolor="#8488ff"
     bordercolor="#666666"
     borderopacity="1"
     objecttolerance="10"
     gridtolerance="10"
     guidetolerance="10"
     inkscape:pageopacity="0"
     inkscape:pageshadow="2"
     inkscape:window-width="1920"
     inkscape:window-height="926"
     id="namedview6"
     showgrid="false"
     units="px"
     inkscape:zoom="3.3638608"
     inkscape:cx="-42.803359"
     inkscape:cy="25.902062"
     inkscape:window-x="0"
     inkscape:window-y="24"
     inkscape:window-maximized="1"
     inkscape:current-layer="svg4" />
  <metadata
     id="metadata2">
    <rdf:RDF>
      <cc:Work
         rdf:about="">
        <dc:format>image/svg+xml</dc:format>
        <dc:type
           rdf:resource="http://purl.org/dc/dcmitype/StillImage" />
        <dc:title />
      </cc:Work>
    </rdf:RDF>
  </metadata>
  <g
     transform="matrix(0.00770163,0,0,0.00770163,0.38271236,0.3825185)"
     id="g4155"
     style="fill:#000000">
    <g
       id="g4157"
       style="fill:#000000">
      <path
         inkscape:connector-curvature="0"
         d="m 508.6,108.3 c 0,58.5 44.2,98.2 98.7,98.2 54.5,0 98.8,-39.7 98.8,-98.2 0,-58.6 -44.2,-98.3 -98.8,-98.3 -54.5,0 -98.7,39.7 -98.7,98.3 l 0,0 z M 294.7,443.5 c 0,11.6 -2.1,40.4 0.3,57.8 l 86.2,-103.7 c 17.8,-19.5 38.5,-33.2 49,-29.5 10.6,3.7 16.3,16.1 12.9,27.6 L 300.4,868.2 c -16.4,55.2 14.7,109.4 90.4,121.8 110.9,0 176.8,-75 241.6,-172.3 0,-11.6 3.9,-42.2 1.5,-59.6 l -86.2,103.7 c -17.9,19.5 -40,33.2 -50.6,29.6 -9.7,-3.4 -15.4,-14.3 -13.5,-25.1 L 627.3,391.6 c 12,-60.3 -20.5,-115.2 -89.1,-122.2 -72.3,0.1 -178.7,76.9 -243.5,174.1 l 0,0 z"
         id="path4159"
         style="fill:#000000" />
    </g>
  </g>
</svg>
