<?xml version="1.0" encoding="UTF-8" standalone="no"?>
<svg
   xmlns:dc="http://purl.org/dc/elements/1.1/"
   xmlns:cc="http://creativecommons.org/ns#"
   xmlns:rdf="http://www.w3.org/1999/02/22-rdf-syntax-ns#"
   xmlns:svg="http://www.w3.org/2000/svg"
   xmlns="http://www.w3.org/2000/svg"
   xmlns:sodipodi="http://sodipodi.sourceforge.net/DTD/sodipodi-0.dtd"
   xmlns:inkscape="http://www.inkscape.org/namespaces/inkscape"
   sodipodi:docname="run.svg"
   inkscape:version="1.0 (1.0+r73)"
   id="svg4"
   version="1.1"
   viewBox="0 0 8.4666665 8.4666669"
   width="32"
   height="32">
  <defs
     id="defs8" />
  <sodipodi:namedview
     inkscape:document-rotation="0"
     inkscape:current-layer="svg4"
     inkscape:window-maximized="1"
     inkscape:window-y="30"
     inkscape:window-x="0"
     inkscape:cy="12.03109"
     inkscape:cx="-2.0726898"
     inkscape:zoom="9.5144351"
     units="px"
     showgrid="false"
     id="namedview6"
     inkscape:window-height="903"
     inkscape:window-width="1920"
     inkscape:pageshadow="2"
     inkscape:pageopacity="0"
     guidetolerance="10"
     gridtolerance="10"
     objecttolerance="10"
     borderopacity="1"
     bordercolor="#666666"
     pagecolor="#8488ff" />
  <metadata
     id="metadata2">
    <rdf:RDF>
      <cc:Work
         rdf:about="">
        <dc:format>image/svg+xml</dc:format>
        <dc:type
           rdf:resource="http://purl.org/dc/dcmitype/StillImage" />
        <dc:title />
      </cc:Work>
    </rdf:RDF>
  </metadata>
  <g
     style="stroke-width:0.99960001;stroke-miterlimit:4;stroke-dasharray:none;fill:#f6f6f6"
     transform="matrix(0.23345588,0,0,0.23345588,-1.6030637,-1.6030637)"
     id="g1670">
    <path
       style="stroke-width:0.99960001;stroke-miterlimit:4;stroke-dasharray:none;fill:#f6f6f6"
       id="path1080"
       d="M 25,42 C 15.6,42 8,34.4 8,25 8,15.6 15.6,8 25,8 c 9.4,0 17,7.6 17,17 0,9.4 -7.6,17 -17,17 z m 0,-32 c -8.3,0 -15,6.7 -15,15 0,8.3 6.7,15 15,15 8.3,0 15,-6.7 15,-15 0,-8.3 -6.7,-15 -15,-15 z" />
    <path
       style="stroke-width:0.99960001;stroke-miterlimit:4;stroke-dasharray:none;fill:#f6f6f6"
       id="path1082"
       d="M 20,33.7 V 16.3 L 35,25 Z m 2,-14 v 10.5 l 9,-5.3 z" />
  </g>
</svg>
